<?xml version="1.0" encoding="UTF-8"?>
<!DOCTYPE svg PUBLIC "-//W3C//DTD SVG 1.1//EN" "http://www.w3.org/Graphics/SVG/1.1/DTD/svg11.dtd">
<!-- Creator: CorelDRAW -->
<svg xmlns="http://www.w3.org/2000/svg" xml:space="preserve" width="531px" height="424px" version="1.1" style="shape-rendering:geometricPrecision; text-rendering:geometricPrecision; image-rendering:optimizeQuality; fill-rule:evenodd; clip-rule:evenodd"
viewBox="0 0 535.78 428.03"
 xmlns:xlink="http://www.w3.org/1999/xlink"
 xmlns:xodm="http://www.corel.com/coreldraw/odm/2003">
 <defs>
  <style type="text/css">
   <![CDATA[
    .fil0 {fill:#1E3050;fill-rule:nonzero}
   ]]>
  </style>
 </defs>
 <g id="Camada_x0020_1">
  <metadata id="CorelCorpID_0Corel-Layer"/>
  <path class="fil0" d="M401.43 160.5l0 0.51 0 -0.51 0 0.51c4.57,-0.51 8.61,-0.51 13.14,-0.51 4.54,0 9.08,0 13.65,0.51l0 -0.51 0.5 0c-1,-15.12 -6.58,-27.73 -16.67,-37.85 -9.61,-10.08 -22.21,-15.12 -37.37,-15.63l-321.14 0 0.51 0c-15.67,0.51 -28.3,5.55 -38.39,15.63 -9.61,10.12 -15.15,22.73 -15.66,37.85l0 214.02 0.51 0c0,14.62 5.54,27.26 15.15,37.34 10.09,10.09 22.72,15.16 37.88,16.17l276.7 0 0.5 0c-11.59,-8.1 -21.2,-16.67 -29.78,-26.76l-247.42 0 0.51 0c-8.1,0 -14.66,-2.52 -19.7,-7.56 -5.07,-5.07 -7.59,-11.63 -7.59,-19.19l0 -214.02 0.5 0c-0.5,-8.06 2.02,-14.11 7.09,-19.16 5.04,-5.04 11.09,-7.56 19.19,-7.56l321.14 0 0.5 0c7.09,0 13.65,2.52 18.69,7.56 5.04,5.05 7.56,11.1 7.56,19.16l0.51 0 -0.51 0zm-26.75 -106.99l-321.14 0 321.14 0 -321.14 0c-8.6,0.51 -12.63,5.04 -13.14,13.14 0.51,8.58 4.54,12.61 13.14,13.62l321.14 0 0.5 0c7.6,-0.51 12.13,-5.04 12.64,-13.62 -0.51,-8.1 -5.04,-12.63 -13.14,-13.14l0.5 0 -0.5 0zm-40.4 -53.51l-240.87 0 240.87 0 -240.87 0c-8.07,0.51 -12.61,5.07 -13.11,13.14 0.5,8.57 5.04,12.61 13.11,13.62l240.87 0 0.5 0c8.1,-0.51 12.64,-5.05 13.14,-13.62 -0.5,-8.07 -5.04,-12.63 -13.64,-13.14l0.5 0 -0.5 0zm130.78 387.13c-14.62,9.1 -31.29,14.14 -50.49,14.14 -18.68,0 -35.36,-5.04 -49.98,-14.14 6.56,-8.58 15.63,-12.61 26.76,-12.61l46.95 0 0.51 0c10.11,0 18.69,4.03 26.25,12.61l0.5 0 -0.5 0zm19.7 -17.65c-12.1,-14.15 -27.77,-21.21 -46.46,-21.72l-46.95 0 0.5 0c-19.19,0.51 -34.85,7.57 -47.46,21.72 -15.16,-17.18 -22.72,-37.85 -23.23,-62.09 0.51,-26.75 9.58,-48.47 27.77,-66.11 17.18,-17.68 38.89,-26.76 65.64,-27.26 26.76,0.5 48.98,9.58 66.15,27.26 17.68,17.14 27.26,39.36 27.77,66.11 -0.51,24.24 -8.57,44.41 -23.73,62.09l0.5 0 -0.5 0zm50.51 -62.09c0,-21.71 -5.57,-41.88 -16.16,-60.06l0.5 0 0 0c-11.12,-18.66 -25.74,-33.31 -44.43,-44.41 -19.2,-10.62 -39.4,-15.66 -60.61,-15.66 -20.7,0 -40.9,5.04 -60.09,15.66 -18.69,11.1 -33.82,25.75 -44.44,44.41 -10.59,18.18 -15.63,38.35 -15.63,60.06 0,21.72 5.04,41.89 15.63,60.07 10.62,18.66 25.24,33.31 44.44,44.4 19.19,10.59 38.88,16.17 60.09,16.17 21.21,0 41.41,-5.58 60.61,-16.17 18.69,-11.09 33.31,-25.74 43.93,-44.4 10.59,-18.18 16.16,-38.35 16.16,-60.07l0.51 0 -0.51 0zm-120.7 -39.86c12.64,1.01 19.2,7.56 20.2,19.66 -1,12.64 -7.56,19.19 -20.2,20.2 -12.13,-1.01 -18.68,-7.56 -19.69,-20.2 1.01,-12.1 7.56,-18.65 19.69,-19.66l0.51 0 -0.51 0zm0 66.62c18.19,-0.5 31.3,-8.07 40.41,-23.23 8.57,-15.63 9.07,-31.29 0,-46.92 -9.11,-15.16 -22.22,-22.72 -40.41,-23.23 -17.68,0.51 -30.79,8.07 -39.89,23.23 -9.08,15.63 -9.08,31.29 0,46.92 8.6,15.16 22.21,22.73 39.89,23.23l0.51 0 -0.51 0z"/>
 </g>
</svg>
