<?xml version="1.0" encoding="UTF-8"?>
<!DOCTYPE svg PUBLIC "-//W3C//DTD SVG 1.1//EN" "http://www.w3.org/Graphics/SVG/1.1/DTD/svg11.dtd">
<!-- Creator: CorelDRAW -->
<svg xmlns="http://www.w3.org/2000/svg" xml:space="preserve" width="372px" height="424px" version="1.1" style="shape-rendering:geometricPrecision; text-rendering:geometricPrecision; image-rendering:optimizeQuality; fill-rule:evenodd; clip-rule:evenodd"
viewBox="0 0 376.29 429.88"
 xmlns:xlink="http://www.w3.org/1999/xlink"
 xmlns:xodm="http://www.corel.com/coreldraw/odm/2003">
 <defs>
  <style type="text/css">
   <![CDATA[
    .fil0 {fill:#1E3050;fill-rule:nonzero}
   ]]>
  </style>
 </defs>
 <g id="Camada_x0020_1">
  <metadata id="CorelCorpID_0Corel-Layer"/>
  <path class="fil0" d="M268.78 107.49c0,-14.72 -3.55,-27.89 -11.18,-40.55l0.54 0 0 0c-7.63,-12.18 -17.25,-21.81 -29.94,-29.4 -12.66,-7.12 -25.86,-10.67 -40.07,-10.67 -14.18,0 -27.38,3.55 -40.57,10.67 -12.16,7.09 -21.81,17.22 -29.41,29.4 -7.09,12.16 -10.63,25.83 -10.63,40.55 0,14.17 3.54,27.88 10.63,40.03 7.6,12.16 17.25,22.32 29.41,29.41 13.19,7.09 26.39,11.14 40.57,11.14 13.71,0 27.41,-3.55 40.07,-11.14 12.69,-7.09 22.31,-16.75 29.4,-29.41 7.63,-12.15 11.18,-25.86 11.18,-40.03l0.5 0 -0.5 0zm-188.17 0c0,-19.79 4.59,-37.51 14.21,-53.75l0.51 0 0 0c9.15,-16.2 22.32,-29.4 39.06,-39.53 16.74,-9.62 34.47,-14.21 53.74,-14.21 18.77,0 37.03,4.59 53.78,14.21 16.74,10.13 29.9,23.33 39.56,39.53 9.11,16.24 14.18,33.96 14.18,53.75 0,19.24 -4.56,37.5 -14.18,53.71 -9.66,16.23 -22.82,29.4 -39.56,39.56 -16.75,9.12 -34.5,14.18 -53.78,14.18 -19.27,0 -37,-5.06 -53.74,-14.18 -16.74,-10.16 -29.91,-23.33 -39.57,-39.56 -9.62,-16.21 -14.21,-34.47 -14.21,-53.71l0.51 0 -0.51 0zm-53.74 295.52l322.55 0 -322.55 0 322.55 0c-1.01,-34.47 -13.7,-62.86 -37.03,-85.68 -22.82,-22.28 -51.21,-34.47 -85.71,-35.48l-77.07 0 0.51 0c-35.01,1.01 -63.4,12.66 -86.22,35.48 -23.83,22.82 -36.02,51.21 -37.03,85.68l0.51 0 -0.51 0zm-26.87 1.52c1.01,-42.07 15.7,-77.04 43.61,-105.94l0.51 0 0 0c27.89,-27.88 63.4,-42.6 105.49,-43.61l77.07 0 0.51 0c41.59,1.01 76.59,15.73 105.49,43.61 27.88,28.9 42.6,63.87 43.61,105.94 0,7.09 -2.53,13.16 -7.59,17.72 -4.59,5.1 -10.16,7.63 -17.76,7.63l-325.59 0 0.51 0c-8.1,0 -13.71,-2.53 -18.26,-7.63 -5.07,-4.56 -7.6,-10.63 -7.6,-17.72l0.51 0 -0.51 0z"/>
 </g>
</svg>
