<?xml version="1.0" standalone="no"?>
<!DOCTYPE svg PUBLIC "-//W3C//DTD SVG 20010904//EN"
 "http://www.w3.org/TR/2001/REC-SVG-20010904/DTD/svg10.dtd">
<svg version="1.0" xmlns="http://www.w3.org/2000/svg"
 width="602.000000pt" height="602.000000pt" viewBox="0 0 602.000000 602.000000"
 preserveAspectRatio="xMidYMid meet">
<metadata>
Created by potrace 1.14, written by Peter Selinger 2001-2017
</metadata>
<g transform="translate(0.000000,602.000000) scale(0.100000,-0.100000)"
fill="#000000" stroke="none">
<path d="M3248 5865 c-2 -2 -89 -7 -194 -10 -104 -4 -205 -8 -224 -10 -19 -2
-66 -6 -105 -9 -38 -3 -86 -8 -105 -11 -19 -2 -55 -7 -80 -10 -160 -21 -397
-73 -560 -122 -63 -19 -119 -36 -125 -37 -5 -2 -23 -8 -40 -15 -16 -6 -43 -16
-60 -22 -16 -6 -39 -15 -50 -20 -11 -4 -49 -20 -85 -34 -69 -28 -312 -146
-320 -156 -3 -3 -25 -16 -50 -30 -25 -13 -46 -27 -48 -31 -2 -5 -8 -8 -14 -8
-17 0 -196 -127 -303 -215 -143 -118 -221 -197 -377 -385 -87 -104 -220 -350
-271 -500 -80 -235 -95 -503 -41 -714 32 -126 82 -249 139 -344 43 -70 44 -62
6 28 -33 78 -76 245 -87 335 -8 76 -9 238 0 288 35 215 105 384 228 554 63 88
194 226 268 283 25 19 47 37 50 40 3 4 48 34 99 69 176 117 409 218 691 301
41 12 86 26 100 31 43 14 267 70 289 72 12 1 21 4 21 7 0 4 6 7 13 7 6 0 37 5
67 12 68 15 92 20 127 25 16 3 39 7 53 11 44 10 321 52 360 54 8 0 29 2 45 4
118 17 225 22 470 22 279 0 375 -5 535 -30 25 -4 54 -8 65 -10 50 -7 199 -39
275 -60 92 -25 130 -38 225 -75 60 -24 142 -60 182 -80 165 -85 349 -229 445
-350 45 -57 119 -177 124 -203 2 -10 7 -24 13 -31 14 -18 41 -114 55 -196 16
-103 13 -221 -9 -343 -21 -110 -102 -301 -182 -425 -90 -141 -192 -263 -339
-402 -43 -41 -115 -104 -159 -140 -44 -35 -85 -69 -91 -75 -6 -5 -20 -16 -30
-23 -11 -7 -41 -28 -69 -48 -143 -102 -350 -230 -510 -314 -44 -23 -85 -46
-92 -52 -7 -5 -18 -11 -25 -12 -7 -2 -69 -30 -138 -63 -69 -33 -141 -67 -160
-76 -19 -8 -53 -23 -75 -33 -22 -9 -42 -18 -45 -19 -3 0 -27 -11 -54 -23 -27
-12 -54 -22 -60 -22 -7 0 -16 -4 -22 -8 -5 -5 -29 -16 -54 -25 -25 -9 -58 -22
-75 -28 -16 -7 -34 -13 -40 -15 -5 -1 -52 -19 -104 -38 -51 -20 -97 -36 -101
-36 -5 0 -2 26 5 57 7 32 15 74 18 93 3 19 13 71 22 115 9 44 18 91 21 105 2
14 7 36 9 50 15 74 22 112 31 155 6 33 43 221 48 245 6 29 19 95 21 110 4 25
15 81 31 160 17 81 18 85 29 145 11 61 20 105 36 185 6 30 12 60 14 65 1 6 6
33 10 60 5 28 10 52 10 55 1 3 5 23 10 45 4 22 10 49 12 60 2 11 5 29 7 40 2
11 17 90 34 175 33 164 42 212 47 245 2 11 9 45 15 75 6 30 13 66 16 80 3 14
7 32 9 40 5 16 17 85 19 110 1 9 6 21 10 28 4 7 6 16 3 18 -2 3 -1 22 5 42 10
44 14 62 23 122 4 25 11 56 16 68 5 13 7 27 4 32 -3 5 -1 11 5 15 6 4 8 10 6
14 -3 4 0 27 5 52 20 93 20 95 10 78 -6 -8 -12 -26 -15 -40 -3 -13 -13 -51
-21 -84 -9 -33 -18 -71 -21 -85 -6 -27 -22 -94 -29 -122 -10 -37 -16 -64 -20
-88 -2 -14 -9 -47 -15 -75 -6 -27 -13 -57 -15 -65 -32 -143 -46 -204 -49 -209
-2 -3 -7 -22 -10 -41 -3 -19 -10 -50 -15 -67 -5 -18 -7 -33 -4 -33 3 0 1 -6
-4 -12 -9 -11 -21 -54 -38 -128 -19 -81 -115 -368 -151 -447 -8 -17 -14 -34
-14 -38 0 -3 -26 -61 -58 -128 -67 -140 -143 -268 -227 -382 -76 -104 -251
-277 -343 -339 l-72 -49 37 -66 c20 -36 51 -93 70 -126 43 -76 178 -353 188
-382 4 -14 2 -24 -4 -24 -14 -2 -29 -6 -36 -9 -3 -1 -9 -4 -15 -5 -5 -1 -12
-4 -15 -5 -3 -1 -8 -3 -12 -5 -5 -1 -15 -4 -23 -7 -14 -5 -91 -28 -115 -34 -5
-1 -59 -17 -120 -34 -60 -18 -120 -34 -132 -36 -12 -2 -32 -8 -45 -14 -22 -9
73 -6 172 5 19 2 60 7 90 10 30 3 73 8 95 10 22 3 58 7 80 10 22 2 59 6 81 9
l42 6 12 -48 c24 -95 32 -269 17 -352 -12 -64 -15 -74 -42 -150 -29 -80 -56
-132 -116 -220 -35 -52 -46 -66 -104 -131 -51 -58 -246 -199 -275 -199 -6 0
-10 -4 -10 -10 0 -5 -8 -10 -18 -10 -10 0 -22 -4 -28 -9 -9 -9 -155 -70 -184
-76 -8 -2 -31 -9 -50 -15 -150 -47 -334 -59 -445 -28 -243 67 -359 261 -296
493 48 173 114 263 266 363 45 29 83 49 265 135 41 20 47 25 25 22 -16 -3 -60
-7 -97 -10 -36 -3 -76 -8 -88 -10 -12 -2 -48 -7 -79 -11 -31 -3 -65 -8 -76
-10 -11 -2 -33 -7 -50 -9 -173 -30 -267 -54 -392 -101 -283 -106 -441 -270
-479 -497 -13 -77 -8 -212 10 -262 17 -46 72 -155 79 -155 4 0 7 -6 7 -12 0
-12 107 -121 160 -163 117 -92 313 -175 519 -221 114 -25 240 -37 371 -37 174
0 254 12 470 67 30 8 155 60 160 66 3 4 16 11 29 15 43 13 145 89 216 161 132
133 182 254 232 554 7 47 8 52 16 75 3 11 8 38 12 60 3 22 14 83 25 135 10 52
22 111 25 130 3 19 8 42 10 50 2 8 6 26 9 40 6 33 38 202 41 215 3 14 17 86
21 110 14 73 17 85 28 86 6 1 20 3 31 4 11 1 43 7 70 12 28 6 57 11 65 11 12
1 349 74 395 86 6 2 28 7 50 11 55 12 55 12 58 15 1 1 9 3 17 5 8 1 42 10 75
19 33 9 84 23 112 31 123 34 424 138 518 180 17 7 41 16 55 20 46 14 421 194
495 238 11 7 52 30 90 51 39 22 76 46 83 53 7 7 20 13 28 13 8 0 14 5 14 10 0
6 6 10 14 10 8 0 16 3 18 8 2 4 39 31 83 61 44 30 82 58 85 61 3 3 21 17 40
30 35 25 63 47 106 85 12 11 44 39 72 62 99 85 260 256 334 358 4 6 18 24 31
40 34 45 127 194 127 205 0 6 4 10 10 10 5 0 9 3 8 8 -1 4 14 39 33 77 51 103
105 264 124 372 22 130 27 309 10 408 -3 22 -8 52 -11 67 -8 49 -56 191 -84
249 -27 56 -98 179 -109 189 -4 3 -18 21 -32 40 -52 69 -155 168 -253 245 -21
17 -45 36 -52 43 -7 6 -16 12 -21 12 -5 0 -24 13 -43 30 -19 16 -38 29 -42 30
-4 0 -34 17 -65 37 -200 127 -635 299 -863 339 -14 3 -43 10 -65 16 -22 5 -49
12 -60 13 -11 2 -63 11 -115 20 -134 23 -178 29 -287 40 -119 12 -169 15 -322
20 -84 3 -157 7 -161 10 -4 2 -9 2 -12 0z"/>
<path d="M3320 4908 c21 -84 68 -272 105 -417 76 -301 76 -301 76 -396 0 -116
-50 -227 -146 -320 -25 -24 -45 -46 -45 -49 0 -3 26 12 58 32 31 21 100 64
152 96 117 71 224 137 228 141 3 2 -56 144 -108 260 -10 22 -55 126 -100 230
-45 105 -90 208 -100 230 -10 22 -46 105 -80 185 -34 80 -66 149 -70 153 -4 5
9 -60 30 -145z"/>
<path d="M3715 3725 c-66 -41 -137 -85 -158 -97 -89 -53 -89 -53 -3 -68 42 -7
79 -17 82 -21 3 -5 12 -9 21 -9 9 0 48 -16 87 -35 87 -42 148 -91 232 -186 43
-49 144 -194 144 -208 0 -6 5 -11 10 -11 6 0 10 -6 10 -14 0 -8 5 -18 10 -21
12 -7 -7 42 -85 220 -32 72 -66 151 -76 178 -11 26 -23 55 -28 65 -10 18 -27
56 -86 195 -21 48 -38 87 -39 87 0 0 -55 -34 -121 -75z"/>
</g>
</svg>
