<svg width="32" height="32" viewBox="0 0 32 32" fill="none" xmlns="http://www.w3.org/2000/svg">
<path d="M4 7C3.45 7 3 7.45 3 8V9.38125L13.7812 18.2313C15.075 19.2938 16.9312 19.2938 18.225 18.2313L29 9.38125V8C29 7.45 28.55 7 28 7H4ZM3 13.2625V24C3 24.55 3.45 25 4 25H28C28.55 25 29 24.55 29 24V13.2625L20.125 20.55C17.725 22.5187 14.2688 22.5187 11.875 20.55L3 13.2625ZM0 8C0 5.79375 1.79375 4 4 4H28C30.2062 4 32 5.79375 32 8V24C32 26.2062 30.2062 28 28 28H4C1.79375 28 0 26.2062 0 24V8Z" fill="#00D4FF"/>
</svg>
