<svg width="301" height="300" viewBox="0 0 301 300" fill="none" xmlns="http://www.w3.org/2000/svg">
<path d="M300.5 0H0.5V300H300.5V0Z" fill="black"/>
<path fill-rule="evenodd" clip-rule="evenodd" d="M164.091 115.193L187.587 100.688L163.834 45.936C164.225 47.6884 164.615 49.4027 165.025 51.0693L171.568 77.155C175.387 92.3836 179.863 102.003 164.091 115.193ZM160.187 45.755C146.282 117.003 132.387 188.26 118.482 259.507C107.91 313.669 -8.72772 297.803 8.99609 245.603C16.0532 224.822 47.2913 220.346 72.9009 218.06C49.3485 226.974 44.4437 235.184 42.2532 247.279C40.0628 259.384 50.0532 269.317 63.5294 269.879C77.0056 270.441 99.0151 262.622 109.615 250.098C122.806 234.507 123.796 220.05 119.901 206.431C115.568 193.279 109.568 183.688 102.996 171.707C145.958 144.546 149.329 79.4693 160.187 45.755ZM191.844 110.498L209.015 150.079C199.091 133.412 191.834 123.955 173.539 121.793L191.844 110.498Z" fill="white"/>
<path fill-rule="evenodd" clip-rule="evenodd" d="M72.358 48.6503C20.0722 65.5169 0.0341464 107.126 19.7103 145.965C-17.7373 92.755 39.3484 17.7169 135.987 8.72646C188.472 3.85027 238.567 13.3455 270.739 40.0884C307.977 71.0407 299.215 127.641 237.063 167.212C194.453 194.355 139.577 206.003 89.1865 209.679C348.167 142.222 268.491 -14.5973 72.358 48.6503Z" fill="white"/>
</svg>
