<svg width="32" height="32" viewBox="0 0 32 32" fill="none" xmlns="http://www.w3.org/2000/svg">
<g clip-path="url(#clip0_1_218)">
<path d="M10.3062 1.5375C9.825 0.374998 8.55625 -0.243752 7.34375 0.0874978L1.84375 1.5875C0.75625 1.8875 0 2.875 0 4C0 19.4625 12.5375 32 28 32C29.125 32 30.1125 31.2437 30.4125 30.1562L31.9125 24.6562C32.2438 23.4437 31.625 22.175 30.4625 21.6937L24.4625 19.1937C23.4438 18.7687 22.2625 19.0625 21.5688 19.9187L19.0438 23C14.6438 20.9187 11.0813 17.3562 9 12.9562L12.0813 10.4375C12.9375 9.7375 13.2312 8.5625 12.8062 7.54375L10.3062 1.54375V1.5375Z" fill="#00D4FF"/>
</g>
<defs>
<clipPath id="clip0_1_218">
<rect width="32" height="32" fill="white"/>
</clipPath>
</defs>
</svg>
