<svg width="29" height="32" viewBox="0 0 29 32" fill="none" xmlns="http://www.w3.org/2000/svg">
<g clip-path="url(#clip0_1_34)">
<path d="M6.76875 28H0.9625V9.30625H6.76875V28ZM3.8625 6.75625C2.00625 6.75625 0.5 5.21875 0.5 3.3625C0.5 2.47071 0.854262 1.61544 1.48485 0.984854C2.11544 0.354262 2.97071 0 3.8625 0C4.75429 0 5.60956 0.354262 6.24015 0.984854C6.87074 1.61544 7.225 2.47071 7.225 3.3625C7.225 5.21875 5.71875 6.75625 3.8625 6.75625ZM28.4937 28H22.7V18.9C22.7 16.7313 22.6562 13.95 19.6812 13.95C16.6625 13.95 16.2 16.3063 16.2 18.7438V28H10.4V9.30625H15.9688V11.8563H16.05C16.825 10.3875 18.7188 8.8375 21.5438 8.8375C27.4188 8.8375 28.5 12.7063 28.5 17.7313V28H28.4937Z" fill="white"/>
</g>
<defs>
<clipPath id="clip0_1_34">
<rect width="28" height="32" fill="white" transform="translate(0.5)"/>
</clipPath>
</defs>
</svg>
