<svg width="501" height="500" viewBox="0 0 501 500" fill="none" xmlns="http://www.w3.org/2000/svg">
<path fill-rule="evenodd" clip-rule="evenodd" d="M265.27 213.08L289.94 197.85L265 140.36C265.41 142.2 265.82 144 266.25 145.75L273.12 173.14C277.13 189.13 281.83 199.23 265.27 213.08ZM261.17 140.17C246.57 214.98 231.98 289.8 217.38 364.61C206.28 421.48 83.81 404.82 102.42 350.01C109.83 328.19 142.63 323.49 169.52 321.09C144.79 330.45 139.64 339.07 137.34 351.77C135.04 364.48 145.53 374.91 159.68 375.5C173.83 376.09 196.94 367.88 208.07 354.73C221.92 338.36 222.96 323.18 218.87 308.88C214.32 295.07 208.02 285 201.12 272.42C246.23 243.9 249.77 175.57 261.17 140.17ZM294.41 208.15L312.44 249.71C302.02 232.21 294.4 222.28 275.19 220.01L294.41 208.15Z" fill="white"/>
<path fill-rule="evenodd" clip-rule="evenodd" d="M168.95 143.21C114.05 160.92 93.01 204.61 113.67 245.39C74.35 189.52 134.29 110.73 235.76 101.29C290.87 96.17 343.47 106.14 377.25 134.22C416.35 166.72 407.15 226.15 341.89 267.7C297.15 296.2 239.53 308.43 186.62 312.29C458.55 241.46 374.89 76.8 168.95 143.21Z" fill="white"/>
</svg>
