<svg width="37" height="32" viewBox="0 0 37 32" fill="none" xmlns="http://www.w3.org/2000/svg">
<g clip-path="url(#clip0_1_50)">
<path d="M15 14.825C16.9875 13.875 18.025 12.4375 18.025 10.2C18.025 5.78749 14.7375 4.71249 10.9438 4.71249H0.5V26.8625H11.2375C15.2625 26.8625 19.0438 24.9312 19.0438 20.4312C19.0438 17.65 17.725 15.5937 15 14.825ZM5.36875 8.49374H9.9375C11.6938 8.49374 13.275 8.98749 13.275 11.025C13.275 12.9062 12.0437 13.6625 10.3062 13.6625H5.36875V8.49374ZM10.575 23.1H5.36875V17H10.675C12.8188 17 14.175 17.8937 14.175 20.1625C14.175 22.4 12.5562 23.1 10.575 23.1ZM32.9813 8.05624H24V5.87499H32.9813V8.05624ZM36.5 19.075C36.5 14.3312 33.725 10.375 28.6938 10.375C23.8063 10.375 20.4875 14.05 20.4875 18.8625C20.4875 23.8562 23.6313 27.2812 28.6938 27.2812C32.525 27.2812 35.0063 25.5562 36.2 21.8875H32.3125C31.8937 23.2562 30.1687 23.9812 28.8312 23.9812C26.25 23.9812 24.8937 22.4687 24.8937 19.9H36.4625C36.4813 19.6375 36.5 19.3562 36.5 19.075ZM24.9 17.125C25.0437 15.0187 26.4438 13.7 28.5562 13.7C30.7687 13.7 31.8813 15 32.0688 17.125H24.9Z" fill="white"/>
</g>
<defs>
<clipPath id="clip0_1_50">
<rect width="36" height="32" fill="white" transform="translate(0.5)"/>
</clipPath>
</defs>
</svg>
