<svg width="80" height="80" viewBox="0 0 80 80" fill="none" xmlns="http://www.w3.org/2000/svg">
<rect width="80" height="80" fill="#00D4FF"/>
<path fill-rule="evenodd" clip-rule="evenodd" d="M42.4619 33.847L46.5735 31.3086L42.4169 21.727C42.4852 22.0337 42.5535 22.3337 42.6252 22.6237L43.7702 27.1903C44.4385 29.8553 45.2219 31.537 42.4619 33.847ZM41.7786 21.6937C39.3452 34.1636 36.9136 46.6336 34.4802 59.1019C32.6302 68.5802 12.2186 65.8036 15.3203 56.6686C16.5553 53.0319 22.0219 52.2486 26.5036 51.8486C22.3819 53.4086 21.5236 54.8453 21.1403 56.9619C20.7569 59.0803 22.5053 60.8186 24.8636 60.9169C27.2219 61.0153 31.0736 59.6469 32.9286 57.4553C35.2369 54.7269 35.4102 52.1969 34.7286 49.8136C33.9702 47.512 32.9202 45.8336 31.7702 43.737C39.2886 38.9836 39.8786 27.5953 41.7786 21.6937ZM47.2501 32.8333L50.5951 40.5433C48.8584 37.6283 47.2484 35.1883 44.0484 34.8116L47.2501 32.8333Z" fill="white"/>
<path fill-rule="evenodd" clip-rule="evenodd" d="M42.4619 33.847L46.5735 31.3086L42.4169 21.727C42.4852 22.0337 42.5535 22.3337 42.6252 22.6237L43.7702 27.1903C44.4385 29.8553 45.2219 31.537 42.4619 33.847ZM41.7786 21.6937C39.3452 34.1636 36.9136 46.6336 34.4802 59.1019C32.6302 68.5802 12.2186 65.8036 15.3203 56.6686C16.5553 53.0319 22.0219 52.2486 26.5036 51.8486C22.3819 53.4086 21.5236 54.8453 21.1403 56.9619C20.7569 59.0803 22.5053 60.8186 24.8636 60.9169C27.2219 61.0153 31.0736 59.6469 32.9286 57.4553C35.2369 54.7269 35.4102 52.1969 34.7286 49.8136C33.9702 47.512 32.9202 45.8336 31.7702 43.737C39.2886 38.9836 39.8786 27.5953 41.7786 21.6937ZM47.2501 32.8333L50.5951 40.5433C48.8584 37.6283 47.2484 35.1883 44.0484 34.8116L47.2501 32.8333Z" fill="white"/>
<path fill-rule="evenodd" clip-rule="evenodd" d="M26.4085 22.202C17.2585 25.1536 13.7519 32.4353 17.1952 39.232C10.6419 29.9203 20.6319 16.7887 37.5435 15.2153C46.7285 14.3603 55.4951 16.0237 61.1251 20.7037C67.6418 26.1203 66.1084 36.0253 55.2318 42.9503C47.7751 47.7003 38.1718 49.7386 29.3535 50.3819C74.6751 38.577 60.7318 11.1337 26.4085 22.202Z" fill="white"/>
<path fill-rule="evenodd" clip-rule="evenodd" d="M26.4085 22.202C17.2585 25.1536 13.7519 32.4353 17.1952 39.232C10.6419 29.9203 20.6319 16.7887 37.5435 15.2153C46.7285 14.3603 55.4951 16.0237 61.1251 20.7037C67.6418 26.1203 66.1084 36.0253 55.2318 42.9503C47.7751 47.7003 38.1718 49.7386 29.3535 50.3819C74.6751 38.577 60.7318 11.1337 26.4085 22.202Z" fill="white"/>
</svg>
