<svg width="50" height="46" viewBox="0 0 50 46" fill="none" xmlns="http://www.w3.org/2000/svg">
<g clip-path="url(#clip0_1_208)">
<path fill-rule="evenodd" clip-rule="evenodd" d="M23.1435 27.8006C23.1435 26.7977 23.9683 25.9847 24.9857 25.9847C26.0032 25.9847 26.8279 26.7977 26.8279 27.8006V39.1147L30.1626 35.7123C30.882 34.9783 32.0484 34.9783 32.7678 35.7123C33.4873 36.4463 33.4872 37.6365 32.7678 38.3705L26.3459 44.9231C25.8437 45.4355 25.1237 45.5902 24.49 45.3873C24.2125 45.2999 23.9513 45.1443 23.7317 44.9203L17.3098 38.3677C16.5903 37.6336 16.5903 36.4435 17.3098 35.7094C18.0292 34.9754 19.1956 34.9754 19.915 35.7094L23.1435 39.0036V27.8006Z" fill="#00D4FF"/>
<mask id="mask0_1_208" style="mask-type:luminance" maskUnits="userSpaceOnUse" x="0" y="0" width="50" height="35">
<path fill-rule="evenodd" clip-rule="evenodd" d="M41.3564 13.381C41.5761 12.5884 41.6925 11.7603 41.6925 10.9082C41.6925 5.1599 36.3915 0.5 29.8525 0.5C24.9692 0.5 20.7763 3.09883 18.9661 6.80898C17.7708 5.96942 16.3013 5.47449 14.7127 5.47449C10.7035 5.47449 7.45342 8.62679 7.45342 12.5153C7.45342 13.1927 7.55205 13.8478 7.73615 14.4678C3.30293 15.5321 0 19.6335 0 24.5306C0 30.2366 4.4841 34.8622 10.0155 34.8622H39.441V34.8466C39.621 34.857 39.8021 34.8622 39.9845 34.8622C45.5159 34.8622 50 30.031 50 24.0714C50 18.6133 46.2387 14.1016 41.3564 13.381Z" fill="white"/>
</mask>
<g mask="url(#mask0_1_208)">
<path d="M41.3563 13.381L41.0115 15.6516C40.3532 15.5545 39.7686 15.1844 39.4052 14.6348C39.0417 14.0853 38.934 13.4087 39.1095 12.7758L41.3563 13.381ZM18.966 6.80899L21.0651 7.80409C20.7674 8.41434 20.2115 8.86388 19.5461 9.03256C18.8808 9.20123 18.1738 9.07174 17.6143 8.67875L18.966 6.80899ZM7.73612 14.4678L9.97147 13.8228C10.1503 14.4247 10.0714 15.0724 9.75331 15.6156C9.43522 16.1588 8.90548 16.55 8.28731 16.6984L7.73612 14.4678ZM39.441 34.8623H41.7702C41.7702 36.1303 40.7274 37.1582 39.441 37.1582V34.8623ZM39.441 34.8466H37.1118C37.1118 34.2145 37.3762 33.6103 37.8428 33.1765C38.3093 32.7427 38.9366 32.5177 39.5769 32.5546L39.441 34.8466ZM44.0217 10.9082C44.0217 11.9677 43.8767 12.9993 43.6032 13.9862L39.1095 12.7758C39.2754 12.1775 39.3633 11.5528 39.3633 10.9082H44.0217ZM29.8525 -1.79591C37.42 -1.79591 44.0217 3.65176 44.0217 10.9082H39.3633C39.3633 6.66803 35.3631 2.79592 29.8525 2.79592V-1.79591ZM16.867 5.81388C19.0986 1.24016 24.1536 -1.79591 29.8525 -1.79591V2.79592C25.7846 2.79592 22.4539 4.9575 21.0651 7.80409L16.867 5.81388ZM14.7127 3.17858C16.799 3.17858 18.7386 3.83007 20.3177 4.93921L17.6143 8.67875C16.8029 8.10879 15.8036 7.77041 14.7127 7.77041V3.17858ZM5.12419 12.5153C5.12419 7.32391 9.45276 3.17858 14.7127 3.17858V7.77041C11.9542 7.77041 9.78258 9.92965 9.78258 12.5153H5.12419ZM5.50073 15.1128C5.25512 14.2856 5.12419 13.4135 5.12419 12.5153H9.78258C9.78258 12.972 9.84888 13.41 9.97147 13.8228L5.50073 15.1128ZM-2.32922 24.5306C-2.32922 18.6174 1.66671 13.5619 7.18491 12.237L8.28731 16.6984C4.93909 17.5023 2.32916 20.6495 2.32916 24.5306H-2.32922ZM10.0155 37.1582C3.09904 37.1582 -2.32922 31.4051 -2.32922 24.5306H2.32916C2.32916 29.0681 5.86911 32.5663 10.0155 32.5663V37.1582ZM39.441 37.1582H10.0155V32.5663H39.441V37.1582ZM41.7702 34.8466V34.8623H37.1118V34.8466H41.7702ZM39.5769 32.5546C39.7116 32.5624 39.8475 32.5663 39.9844 32.5663V37.1582C39.7567 37.1582 39.5302 37.1516 39.305 37.1387L39.5769 32.5546ZM39.9844 32.5663C44.0388 32.5663 47.6708 28.9595 47.6708 24.0714H52.3292C52.3292 31.1025 46.9929 37.1582 39.9844 37.1582V32.5663ZM47.6708 24.0714C47.6708 19.6112 44.6194 16.1841 41.0115 15.6516L41.7012 11.1104C47.858 12.019 52.3292 17.6154 52.3292 24.0714H47.6708Z" fill="#00D4FF"/>
</g>
</g>
<defs>
<clipPath id="clip0_1_208">
<rect width="50" height="45" fill="white" transform="translate(0 0.5)"/>
</clipPath>
</defs>
</svg>
