<svg width="46" height="37" viewBox="0 0 46 37" fill="none" xmlns="http://www.w3.org/2000/svg">
<g clip-path="url(#clip0_187_1705)">
<path d="M34.2104 13.9518V13.9945C34.5941 13.9518 34.9332 13.9518 35.3135 13.9518C35.6946 13.9518 36.0757 13.9518 36.4594 13.9945V13.9518H36.5014C36.4174 12.6863 35.949 11.6308 35.1019 10.7838C34.2952 9.94013 33.2375 9.51829 31.9648 9.47561H5.0058H5.04861C3.73315 9.51829 2.67289 9.94013 1.82585 10.7838C1.01912 11.6308 0.554044 12.6863 0.51123 13.9518V31.8648H0.554044C0.554044 33.0885 1.01912 34.1464 1.82585 34.9901C2.67289 35.8346 3.73315 36.259 5.0058 36.3435H28.2342H28.2761C27.3032 35.6655 26.4965 34.9482 25.7762 34.1037H5.0058H5.04861C4.36863 34.1037 3.81794 33.8928 3.39484 33.471C2.96922 33.0466 2.75768 32.4976 2.75768 31.8648V13.9518H2.79965C2.75768 13.2772 2.96922 12.7708 3.39484 12.3481C3.81794 11.9263 4.32582 11.7154 5.0058 11.7154H31.9648H32.0068C32.602 11.7154 33.1527 11.9263 33.5758 12.3481C33.9989 12.7708 34.2104 13.2772 34.2104 13.9518ZM31.9648 4.99693H5.0058C4.28385 5.03961 3.94554 5.41877 3.90272 6.09672C3.94554 6.81485 4.28385 7.15215 5.0058 7.23669H31.9648H32.0068C32.6448 7.194 33.0251 6.81485 33.0679 6.09672C33.0251 5.41877 32.6448 5.03961 31.9648 4.99693ZM28.5733 0.51825H8.3528C7.67534 0.560935 7.29422 0.942598 7.25224 1.61804C7.29422 2.33533 7.67534 2.67347 8.3528 2.75801H28.5733H28.6153C29.2953 2.71532 29.6764 2.33533 29.7184 1.61804C29.6764 0.942598 29.2953 0.560935 28.5733 0.51825ZM39.552 32.9202C38.3247 33.6819 36.9253 34.1037 35.3135 34.1037C33.7453 34.1037 32.3451 33.6819 31.1178 32.9202C31.6685 32.2021 32.4299 31.8648 33.3642 31.8648H37.3056H37.3484C38.1971 31.8648 38.9174 32.2021 39.552 32.9202ZM41.2058 31.443C40.19 30.2587 38.8746 29.6677 37.3056 29.6251H33.3642H33.4062C31.7952 29.6677 30.4806 30.2587 29.422 31.443C28.1494 30.005 27.5147 28.275 27.4719 26.2462C27.5147 24.0072 28.2761 22.1893 29.8032 20.7129C31.2454 19.2331 33.0679 18.4731 35.3135 18.4313C37.5599 18.4731 39.4253 19.2331 40.8666 20.7129C42.3508 22.1475 43.1551 24.0072 43.1979 26.2462C43.1551 28.275 42.4784 29.9632 41.2058 31.443ZM45.446 26.2462C45.446 24.4291 44.9784 22.7409 44.0894 21.2193H44.1314C43.1979 19.6575 41.9706 18.4313 40.4016 17.5022C38.7898 16.6134 37.094 16.1915 35.3135 16.1915C33.5758 16.1915 31.88 16.6134 30.2691 17.5022C28.7001 18.4313 27.43 19.6575 26.5384 21.2193C25.6494 22.7409 25.2263 24.4291 25.2263 26.2462C25.2263 28.0641 25.6494 29.7523 26.5384 31.2739C27.43 32.8357 28.6573 34.0619 30.2691 34.9901C31.88 35.8765 33.533 36.3435 35.3135 36.3435C37.094 36.3435 38.7898 35.8765 40.4016 34.9901C41.9706 34.0619 43.1979 32.8357 44.0894 31.2739C44.9784 29.7523 45.446 28.0641 45.446 26.2462ZM35.3135 22.91C36.3746 22.9945 36.9253 23.5427 37.0092 24.5555C36.9253 25.6134 36.3746 26.1616 35.3135 26.2462C34.2952 26.1616 33.7453 25.6134 33.6606 24.5555C33.7453 23.5427 34.2952 22.9945 35.3135 22.91ZM35.3135 28.4859C36.8405 28.4441 37.9411 27.8105 38.7058 26.5416C39.4253 25.2334 39.4672 23.9227 38.7058 22.6145C37.9411 21.3457 36.8405 20.7129 35.3135 20.6702C33.8293 20.7129 32.7287 21.3457 31.9648 22.6145C31.2026 23.9227 31.2026 25.2334 31.9648 26.5416C32.6868 27.8105 33.8293 28.4441 35.3135 28.4859Z" fill="#00D4FF"/>
</g>
<defs>
<clipPath id="clip0_187_1705">
<rect width="45" height="35.8252" fill="white" transform="translate(0.5 0.51825)"/>
</clipPath>
</defs>
</svg>
