<svg width="46" height="52" viewBox="0 0 46 52" fill="none" xmlns="http://www.w3.org/2000/svg">
<g clip-path="url(#clip0_187_1703)">
<path d="M32.6207 13.0529C32.6207 11.2966 32.1972 9.72526 31.2868 8.21476H31.3512C30.4409 6.76152 29.2931 5.61254 27.779 4.70695C26.2685 3.85744 24.6936 3.43388 22.9981 3.43388C21.3063 3.43388 19.7313 3.85744 18.1576 4.70695C16.7068 5.55288 15.5554 6.76152 14.6486 8.21476C13.8027 9.6656 13.3803 11.2966 13.3803 13.0529C13.3803 14.7436 13.8027 16.3794 14.6486 17.829C15.5554 19.2799 16.7068 20.4921 18.1576 21.338C19.7313 22.1839 21.3063 22.6672 22.9981 22.6672C24.6339 22.6672 26.2685 22.2436 27.779 21.338C29.2931 20.4921 30.4409 19.3395 31.2868 17.829C32.1972 16.3794 32.6207 14.7436 32.6207 13.0529ZM10.1696 13.0529C10.1696 10.6917 10.7172 8.57747 11.865 6.63982H11.9259C13.0176 4.70695 14.5889 3.13202 16.5862 1.92338C18.5835 0.775583 20.699 0.227936 22.9981 0.227936C25.2376 0.227936 27.4163 0.775583 29.4148 1.92338C31.4121 3.13202 32.9823 4.70695 34.1348 6.63982C35.2218 8.57747 35.8267 10.6917 35.8267 13.0529C35.8267 15.3485 35.2826 17.5271 34.1348 19.4612C32.9823 21.3977 31.4121 22.969 29.4148 24.1812C27.4163 25.2694 25.2985 25.8731 22.9981 25.8731C20.699 25.8731 18.5835 25.2694 16.5862 24.1812C14.5889 22.969 13.0176 21.3977 11.865 19.4612C10.7172 17.5271 10.1696 15.3485 10.1696 13.0529ZM3.7577 48.3123H42.2421C42.1216 44.1996 40.6076 40.8123 37.824 38.0896C35.1013 35.4313 31.714 33.9768 27.5977 33.8563H18.4022H18.463C14.2859 33.9768 10.8986 35.3668 8.17587 38.0896C5.33263 40.8123 3.87821 44.1996 3.7577 48.3123ZM0.551758 48.4937C0.672264 43.4742 2.42497 39.3018 5.755 35.8536H5.81585C9.14349 32.5272 13.3803 30.7709 18.4022 30.6504H27.5977H27.6585C32.6207 30.7709 36.7967 32.5272 40.2448 35.8536C43.5713 39.3018 45.3276 43.4742 45.4481 48.4937C45.4481 49.3396 45.1462 50.0638 44.5425 50.6079C43.9949 51.2164 43.3303 51.5183 42.4235 51.5183H3.57634H3.63719C2.67076 51.5183 2.00141 51.2164 1.45854 50.6079C0.85362 50.0638 0.551758 49.3396 0.551758 48.4937Z" fill="#00D4FF"/>
</g>
<defs>
<clipPath id="clip0_187_1703">
<rect width="45" height="51.2903" fill="white" transform="translate(0.5 0.227936)"/>
</clipPath>
</defs>
</svg>
